<svg width="68" height="44" viewBox="0 0 68 44" fill="none" xmlns="http://www.w3.org/2000/svg">
<circle cx="33.5" cy="5.5" r="5.5" fill="#FF4C60"/>
<path d="M0 43.9499C0 43.9224 4.64311 34.28 10.318 22.5224L20.6361 1.1449L28.546 17.5336C32.8964 26.5474 36.4939 33.9092 36.5404 33.8931C36.6121 33.8684 49.335 11.1568 49.4779 10.7985C49.5174 10.6996 48.4772 10.6738 44.4638 10.6738H39.3999L40.155 9.90047C40.7813 9.25916 40.9849 8.96541 41.3485 8.17929C42.3425 6.02963 42.4024 3.60453 41.5066 1.76851L41.2267 1.19478H53.3131C59.9606 1.19478 65.3994 1.21573 65.3994 1.2414C65.3994 1.2862 57.6744 15.1544 50.4187 28.1351C48.5015 31.565 46.9504 34.4035 46.9717 34.4429C46.9929 34.4823 49.3912 34.5166 52.3012 34.5193C56.6684 34.5235 57.7297 34.5511 58.3808 34.6791C61.2808 35.2489 63.9937 37.3505 66.2912 40.807C66.8456 41.6411 68 43.7534 68 43.9337C68 43.9702 59.6531 44 49.4513 44H30.9027L28.4424 38.8364C25.1274 31.8789 23.1185 27.6503 21.8063 24.8674C21.2046 23.5915 20.6866 22.5475 20.6552 22.5475C20.6237 22.5475 20.3027 23.1874 19.9417 23.9694C13.2376 38.4945 13.493 37.976 12.4008 39.2819C10.3069 41.7857 6.73379 43.4537 2.51812 43.8955C1.47848 44.0044 0 44.0363 0 43.9499Z" fill="#282642"/>
</svg>
